<svg xmlns="http://www.w3.org/2000/svg" width="1700" height="1020" viewBox="0 0 1700 1020">
<rect width="1700" height="1020" fill="#f8fafb"/>
<g font-family="DejaVu Sans, sans-serif">
<text x="72" y="93" font-size="47" fill="#1b2935" font-weight="bold" text-anchor="start">Implementation Diversity: Safety &amp; Liveness</text>
<text x="72" y="140" font-size="23" fill="#576875" font-weight="normal" text-anchor="start">Large federation: quorum ≈ ⅔ · Bitcoin: user impact when implementations disagree.</text>
<text x="130" y="211" font-size="24" fill="#1b2935" font-weight="bold" text-anchor="start">Federation failure probability · log scale</text>
<line x1="130" y1="250" x2="165" y2="250" stroke="#b84e34" stroke-width="4" stroke-dasharray=""/>
<text x="180" y="257" font-size="20" fill="#b84e34" font-weight="normal" text-anchor="start">Federation: fund safety</text>
<line x1="130" y1="285" x2="165" y2="285" stroke="#326bb2" stroke-width="4" stroke-dasharray=""/>
<text x="180" y="292" font-size="20" fill="#326bb2" font-weight="normal" text-anchor="start">Federation: liveness</text>
<text x="640" y="257" font-size="20" fill="#576875" font-weight="normal" text-anchor="start">Fixed total effort: 20 units</text>
<text x="640" y="292" font-size="20" fill="#576875" font-weight="normal" text-anchor="start">Near-equal node shares</text>
<line x1="130" y1="738.0" x2="1020" y2="738.0" stroke="#dce3e8" stroke-width="1" stroke-dasharray=""/>
<text x="112" y="745.0" font-size="20" fill="#576875" font-weight="normal" text-anchor="end">0.01%</text>
<line x1="130" y1="652.363968061894" x2="1020" y2="652.363968061894" stroke="#dce3e8" stroke-width="1" stroke-dasharray=""/>
<text x="112" y="659.363968061894" font-size="20" fill="#576875" font-weight="normal" text-anchor="end">0.03%</text>
<line x1="130" y1="558.5151602637734" x2="1020" y2="558.5151602637734" stroke="#dce3e8" stroke-width="1" stroke-dasharray=""/>
<text x="112" y="565.5151602637734" font-size="20" fill="#576875" font-weight="normal" text-anchor="end">0.1%</text>
<line x1="130" y1="472.8791283256673" x2="1020" y2="472.8791283256673" stroke="#dce3e8" stroke-width="1" stroke-dasharray=""/>
<text x="112" y="479.8791283256673" font-size="20" fill="#576875" font-weight="normal" text-anchor="end">0.3%</text>
<line x1="130" y1="379.0303205275467" x2="1020" y2="379.0303205275467" stroke="#dce3e8" stroke-width="1" stroke-dasharray=""/>
<text x="112" y="386.0303205275467" font-size="20" fill="#576875" font-weight="normal" text-anchor="end">1%</text>
<line x1="130" y1="325.0" x2="1020" y2="325.0" stroke="#dce3e8" stroke-width="1" stroke-dasharray=""/>
<text x="112" y="332.0" font-size="20" fill="#576875" font-weight="normal" text-anchor="end">2%</text>
<line x1="130" y1="738" x2="1020" y2="738" stroke="#8796a0" stroke-width="1.5" stroke-dasharray="5 5"/>
<line x1="130.0" y1="738" x2="130.0" y2="745" stroke="#9aaab5" stroke-width="1" stroke-dasharray=""/>
<text x="130.0" y="773" font-size="20" fill="#576875" font-weight="normal" text-anchor="middle">1</text>
<line x1="228.88888888888889" y1="738" x2="228.88888888888889" y2="745" stroke="#9aaab5" stroke-width="1" stroke-dasharray=""/>
<text x="228.88888888888889" y="773" font-size="20" fill="#576875" font-weight="normal" text-anchor="middle">2</text>
<line x1="327.77777777777777" y1="738" x2="327.77777777777777" y2="745" stroke="#9aaab5" stroke-width="1" stroke-dasharray=""/>
<text x="327.77777777777777" y="773" font-size="20" fill="#576875" font-weight="normal" text-anchor="middle">3</text>
<line x1="426.6666666666667" y1="738" x2="426.6666666666667" y2="745" stroke="#9aaab5" stroke-width="1" stroke-dasharray=""/>
<text x="426.6666666666667" y="773" font-size="20" fill="#576875" font-weight="normal" text-anchor="middle">4</text>
<line x1="525.5555555555555" y1="738" x2="525.5555555555555" y2="745" stroke="#9aaab5" stroke-width="1" stroke-dasharray=""/>
<text x="525.5555555555555" y="773" font-size="20" fill="#576875" font-weight="normal" text-anchor="middle">5</text>
<line x1="624.4444444444445" y1="738" x2="624.4444444444445" y2="745" stroke="#9aaab5" stroke-width="1" stroke-dasharray=""/>
<text x="624.4444444444445" y="773" font-size="20" fill="#576875" font-weight="normal" text-anchor="middle">6</text>
<line x1="723.3333333333334" y1="738" x2="723.3333333333334" y2="745" stroke="#9aaab5" stroke-width="1" stroke-dasharray=""/>
<text x="723.3333333333334" y="773" font-size="20" fill="#576875" font-weight="normal" text-anchor="middle">7</text>
<line x1="822.2222222222222" y1="738" x2="822.2222222222222" y2="745" stroke="#9aaab5" stroke-width="1" stroke-dasharray=""/>
<text x="822.2222222222222" y="773" font-size="20" fill="#576875" font-weight="normal" text-anchor="middle">8</text>
<line x1="921.1111111111111" y1="738" x2="921.1111111111111" y2="745" stroke="#9aaab5" stroke-width="1" stroke-dasharray=""/>
<text x="921.1111111111111" y="773" font-size="20" fill="#576875" font-weight="normal" text-anchor="middle">9</text>
<line x1="1020.0" y1="738" x2="1020.0" y2="745" stroke="#9aaab5" stroke-width="1" stroke-dasharray=""/>
<text x="1020.0" y="773" font-size="20" fill="#576875" font-weight="normal" text-anchor="middle">10</text>
<text x="575.0" y="813" font-size="23" fill="#1b2935" font-weight="normal" text-anchor="middle">Number of implementations</text>
<polyline points="130.00,379.03 228.89,551.77 327.78,504.50 426.67,613.19 525.56,701.34 624.44,668.82 723.33,707.91 822.22,729.19 921.11,717.31 1020.00,726.49" fill="none" stroke="#b84e34" stroke-width="4" stroke-linejoin="round"/>
<circle cx="130.0" cy="379.03031989131154" r="6" fill="#b84e34" stroke="#f8fafb" stroke-width="2"/>
<circle cx="228.88888888888889" cy="551.7719594038533" r="6" fill="#b84e34" stroke="#f8fafb" stroke-width="2"/>
<circle cx="327.77777777777777" cy="504.4969138487239" r="6" fill="#b84e34" stroke="#f8fafb" stroke-width="2"/>
<circle cx="426.6666666666667" cy="613.1942509675462" r="6" fill="#b84e34" stroke="#f8fafb" stroke-width="2"/>
<circle cx="525.5555555555555" cy="701.3440281653021" r="6" fill="#b84e34" stroke="#f8fafb" stroke-width="2"/>
<circle cx="624.4444444444445" cy="668.8238161596464" r="6" fill="#b84e34" stroke="#f8fafb" stroke-width="2"/>
<circle cx="723.3333333333334" cy="707.9082697532165" r="6" fill="#b84e34" stroke="#f8fafb" stroke-width="2"/>
<circle cx="822.2222222222222" cy="729.1925398868668" r="6" fill="#b84e34" stroke="#f8fafb" stroke-width="2"/>
<circle cx="921.1111111111111" cy="717.3148086545415" r="6" fill="#b84e34" stroke="#f8fafb" stroke-width="2"/>
<circle cx="1020.0" cy="726.4865256123728" r="6" fill="#b84e34" stroke="#f8fafb" stroke-width="2"/>
<line x1="1020" y1="726.4865256123728" x2="1036" y2="726.4865256123728" stroke="#b84e34" stroke-width="1.5" stroke-dasharray=""/>
<text x="1043" y="733.4865256123728" font-size="21" fill="#b84e34" font-weight="bold" text-anchor="start">0.012%</text>
<polyline points="130.00,379.03 228.89,329.36 327.78,371.96 426.67,425.07 525.56,385.13 624.44,414.55 723.33,441.38 822.22,397.87 921.11,407.91 1020.00,425.68" fill="none" stroke="#326bb2" stroke-width="4" stroke-linejoin="round"/>
<circle cx="130.0" cy="379.03031989131154" r="6" fill="#326bb2" stroke="#f8fafb" stroke-width="2"/>
<circle cx="228.88888888888889" cy="329.35504747325734" r="6" fill="#326bb2" stroke="#f8fafb" stroke-width="2"/>
<circle cx="327.77777777777777" cy="371.956214545348" r="6" fill="#326bb2" stroke="#f8fafb" stroke-width="2"/>
<circle cx="426.6666666666667" cy="425.06985082211827" r="6" fill="#326bb2" stroke="#f8fafb" stroke-width="2"/>
<circle cx="525.5555555555555" cy="385.13017109939597" r="6" fill="#326bb2" stroke="#f8fafb" stroke-width="2"/>
<circle cx="624.4444444444445" cy="414.5516830142249" r="6" fill="#326bb2" stroke="#f8fafb" stroke-width="2"/>
<circle cx="723.3333333333334" cy="441.37851422112095" r="6" fill="#326bb2" stroke="#f8fafb" stroke-width="2"/>
<circle cx="822.2222222222222" cy="397.866572850156" r="6" fill="#326bb2" stroke="#f8fafb" stroke-width="2"/>
<circle cx="921.1111111111111" cy="407.9130788242972" r="6" fill="#326bb2" stroke="#f8fafb" stroke-width="2"/>
<circle cx="1020.0" cy="425.6829827489367" r="6" fill="#326bb2" stroke="#f8fafb" stroke-width="2"/>
<line x1="1020" y1="425.6829827489367" x2="1036" y2="425.6829827489367" stroke="#326bb2" stroke-width="1.5" stroke-dasharray=""/>
<text x="1043" y="432.6829827489367" font-size="21" fill="#326bb2" font-weight="bold" text-anchor="start">0.550%</text>
<circle cx="130.0" cy="379.03031989131154" r="8" fill="#b84e34" stroke="#f8fafb" stroke-width="2"/>
<circle cx="130.0" cy="379.03031989131154" r="4" fill="#326bb2" stroke="#f8fafb" stroke-width="2"/>
<rect x="1174" y="192" width="454" height="636" rx="18" fill="#edf2f5"/>
<text x="1204" y="235" font-size="26" fill="#1b2935" font-weight="bold" text-anchor="start">Bitcoin: affected users</text>
<text x="1204" y="267" font-size="18" fill="#576875" font-weight="normal" text-anchor="start">Conditional impact—not bug probability</text>
<line x1="1204" y1="302" x2="1236" y2="302" stroke="#a96b08" stroke-width="4" stroke-dasharray=""/>
<text x="1248" y="309" font-size="18" fill="#a96b08" font-weight="normal" text-anchor="start">A rejects the dominant chain</text>
<line x1="1204" y1="332" x2="1236" y2="332" stroke="#7953a6" stroke-width="4" stroke-dasharray="6 4"/>
<text x="1248" y="339" font-size="18" fill="#7953a6" font-weight="normal" text-anchor="start">B rejects the dominant chain</text>
<text x="1204" y="382" font-size="18" fill="#576875" font-weight="normal" text-anchor="start">Users unable to follow that chain (%)</text>
<line x1="1250" y1="625" x2="1584" y2="625" stroke="#d5dfe5" stroke-width="1" stroke-dasharray=""/>
<text x="1236" y="631" font-size="17" fill="#576875" font-weight="normal" text-anchor="end">0</text>
<line x1="1250" y1="625" x2="1250" y2="631" stroke="#8796a0" stroke-width="1" stroke-dasharray=""/>
<text x="1250" y="654" font-size="17" fill="#576875" font-weight="normal" text-anchor="middle">0</text>
<line x1="1250" y1="583.2" x2="1584" y2="583.2" stroke="#d5dfe5" stroke-width="1" stroke-dasharray=""/>
<text x="1236" y="589.2" font-size="17" fill="#576875" font-weight="normal" text-anchor="end">20</text>
<line x1="1316.8" y1="625" x2="1316.8" y2="631" stroke="#8796a0" stroke-width="1" stroke-dasharray=""/>
<text x="1316.8" y="654" font-size="17" fill="#576875" font-weight="normal" text-anchor="middle">20</text>
<line x1="1250" y1="520.5" x2="1584" y2="520.5" stroke="#d5dfe5" stroke-width="1" stroke-dasharray=""/>
<text x="1236" y="526.5" font-size="17" fill="#576875" font-weight="normal" text-anchor="end">50</text>
<line x1="1417.0" y1="625" x2="1417.0" y2="631" stroke="#8796a0" stroke-width="1" stroke-dasharray=""/>
<text x="1417.0" y="654" font-size="17" fill="#576875" font-weight="normal" text-anchor="middle">50</text>
<line x1="1250" y1="457.79999999999995" x2="1584" y2="457.79999999999995" stroke="#d5dfe5" stroke-width="1" stroke-dasharray=""/>
<text x="1236" y="463.79999999999995" font-size="17" fill="#576875" font-weight="normal" text-anchor="end">80</text>
<line x1="1517.2" y1="625" x2="1517.2" y2="631" stroke="#8796a0" stroke-width="1" stroke-dasharray=""/>
<text x="1517.2" y="654" font-size="17" fill="#576875" font-weight="normal" text-anchor="middle">80</text>
<line x1="1250" y1="416" x2="1584" y2="416" stroke="#d5dfe5" stroke-width="1" stroke-dasharray=""/>
<text x="1236" y="422" font-size="17" fill="#576875" font-weight="normal" text-anchor="end">100</text>
<line x1="1584" y1="625" x2="1584" y2="631" stroke="#8796a0" stroke-width="1" stroke-dasharray=""/>
<text x="1584" y="654" font-size="17" fill="#576875" font-weight="normal" text-anchor="middle">100</text>
<line x1="1250" y1="625" x2="1584" y2="416" stroke="#a96b08" stroke-width="3.5" stroke-dasharray=""/>
<line x1="1250" y1="416" x2="1584" y2="625" stroke="#7953a6" stroke-width="3.5" stroke-dasharray="7 5"/>
<line x1="1316.8" y1="625" x2="1316.8" y2="457.79999999999995" stroke="#8796a0" stroke-width="1.2" stroke-dasharray="4 4"/>
<circle cx="1316.8" cy="583.2" r="6" fill="#a96b08" stroke="#f8fafb" stroke-width="2"/>
<circle cx="1316.8" cy="457.79999999999995" r="6" fill="#7953a6" stroke="#f8fafb" stroke-width="2"/>
<text x="1417.0" y="690" font-size="18" fill="#1b2935" font-weight="normal" text-anchor="middle">Users on implementation A (%)</text>
<text x="1204" y="735" font-size="22" fill="#1b2935" font-weight="bold" text-anchor="start">20% use A · 80% use B</text>
<text x="1204" y="769" font-size="21" fill="#a96b08" font-weight="normal" text-anchor="start">A rejects → 20% affected</text>
<text x="1204" y="802" font-size="21" fill="#7953a6" font-weight="normal" text-anchor="start">B rejects → 80% affected</text>
<rect x="72" y="852" width="1556" height="76" rx="14" fill="#e4f1ed"/>
<text x="101" y="901" font-size="30" fill="#075e50" font-weight="bold" text-anchor="start">Network progress does not guarantee progress for every user.</text>
<text x="72" y="964" font-size="20" fill="#576875" font-weight="normal" text-anchor="start">Federation: toy probabilities; common-failure floor 0.01%, shared exposure retained. Bitcoin: impact given disagreement.</text>
<text x="72" y="995" font-size="20" fill="#576875" font-weight="normal" text-anchor="start">User share does not choose the dominant chain. A rejecting group may follow a separate fork rather than stop entirely.</text>
</g>
</svg>