<svg xmlns="http://www.w3.org/2000/svg" width="1700" height="1020" viewBox="0 0 1700 1020">
<rect width="1700" height="1020" fill="#f8fafb"/>
<g font-family="DejaVu Sans, sans-serif">
<text x="72" y="93" font-size="47" fill="#1b2935" font-weight="bold" text-anchor="start">Threshold Security Illustrative Model</text>
<text x="72" y="140" font-size="23" fill="#576875" font-weight="normal" text-anchor="start">Independent implementations can make one compromised codebase insufficient to authorize a signature.</text>
<text x="130" y="214" font-size="25" fill="#1b2935" font-weight="bold" text-anchor="start">Likelihood of unauthorized signing</text>
<text x="130" y="246" font-size="20" fill="#576875" font-weight="normal" text-anchor="start">7-of-10 federation · lower is better</text>
<line x1="130" y1="722.0" x2="1000" y2="722.0" stroke="#dce3e8" stroke-width="1" stroke-dasharray=""/>
<text x="110" y="729.0" font-size="20" fill="#576875" font-weight="normal" text-anchor="end">0.0%</text>
<line x1="130" y1="635.0" x2="1000" y2="635.0" stroke="#dce3e8" stroke-width="1" stroke-dasharray=""/>
<text x="110" y="642.0" font-size="20" fill="#576875" font-weight="normal" text-anchor="end">1.0%</text>
<line x1="130" y1="548.0" x2="1000" y2="548.0" stroke="#dce3e8" stroke-width="1" stroke-dasharray=""/>
<text x="110" y="555.0" font-size="20" fill="#576875" font-weight="normal" text-anchor="end">2.0%</text>
<line x1="130" y1="461.00000000000006" x2="1000" y2="461.00000000000006" stroke="#dce3e8" stroke-width="1" stroke-dasharray=""/>
<text x="110" y="468.00000000000006" font-size="20" fill="#576875" font-weight="normal" text-anchor="end">3.0%</text>
<line x1="130" y1="374.0" x2="1000" y2="374.0" stroke="#dce3e8" stroke-width="1" stroke-dasharray=""/>
<text x="110" y="381.0" font-size="20" fill="#576875" font-weight="normal" text-anchor="end">4.0%</text>
<line x1="130" y1="287.0" x2="1000" y2="287.0" stroke="#dce3e8" stroke-width="1" stroke-dasharray=""/>
<text x="110" y="294.0" font-size="20" fill="#576875" font-weight="normal" text-anchor="end">5.0%</text>
<line x1="130.0" y1="722" x2="130.0" y2="729" stroke="#9aaab5" stroke-width="1" stroke-dasharray=""/>
<text x="130.0" y="756" font-size="20" fill="#576875" font-weight="normal" text-anchor="middle">0</text>
<line x1="347.5" y1="722" x2="347.5" y2="729" stroke="#9aaab5" stroke-width="1" stroke-dasharray=""/>
<text x="347.5" y="756" font-size="20" fill="#576875" font-weight="normal" text-anchor="middle">5</text>
<line x1="565.0" y1="722" x2="565.0" y2="729" stroke="#9aaab5" stroke-width="1" stroke-dasharray=""/>
<text x="565.0" y="756" font-size="20" fill="#576875" font-weight="normal" text-anchor="middle">10</text>
<line x1="782.5" y1="722" x2="782.5" y2="729" stroke="#9aaab5" stroke-width="1" stroke-dasharray=""/>
<text x="782.5" y="756" font-size="20" fill="#576875" font-weight="normal" text-anchor="middle">15</text>
<line x1="1000.0" y1="722" x2="1000.0" y2="729" stroke="#9aaab5" stroke-width="1" stroke-dasharray=""/>
<text x="1000.0" y="756" font-size="20" fill="#576875" font-weight="normal" text-anchor="middle">20</text>
<line x1="130" y1="722" x2="1000" y2="722" stroke="#9aaab5" stroke-width="1.5" stroke-dasharray=""/>
<text x="565.0" y="800" font-size="23" fill="#1b2935" font-weight="normal" text-anchor="middle">Total hardening effort (arbitrary units)</text>
<polyline points="130.00,290.48 132.18,307.28 134.35,323.27 136.53,338.47 138.70,352.93 140.88,366.69 143.05,379.77 145.22,392.22 147.40,404.06 149.57,415.32 151.75,426.04 153.93,436.23 156.10,445.92 158.28,455.14 160.45,463.92 162.62,472.26 164.80,480.20 166.97,487.75 169.15,494.93 171.32,501.76 173.50,508.26 175.68,514.44 177.85,520.32 180.02,525.91 182.20,531.23 184.38,536.29 186.55,541.11 188.72,545.69 190.90,550.04 193.07,554.19 195.25,558.13 197.43,561.88 199.60,565.44 201.78,568.83 203.95,572.06 206.12,575.13 208.30,578.05 210.47,580.83 212.65,583.47 214.82,585.98 217.00,588.37 219.17,590.65 221.35,592.81 223.53,594.87 225.70,596.83 227.88,598.69 230.05,600.46 232.22,602.14 234.40,603.75 236.57,605.27 238.75,606.72 240.93,608.10 243.10,609.41 245.28,610.66 247.45,611.85 249.62,612.98 251.80,614.05 253.97,615.07 256.15,616.04 258.32,616.97 260.50,617.85 262.68,618.68 264.85,619.48 267.02,620.24 269.20,620.96 271.38,621.64 273.55,622.29 275.73,622.91 277.90,623.50 280.07,624.06 282.25,624.60 284.43,625.10 286.60,625.59 288.77,626.05 290.95,626.48 293.12,626.90 295.30,627.29 297.48,627.67 299.65,628.03 301.82,628.37 304.00,628.69 306.18,629.00 308.35,629.29 310.53,629.57 312.70,629.83 314.88,630.09 317.05,630.33 319.22,630.55 321.40,630.77 323.57,630.98 325.75,631.17 327.93,631.36 330.10,631.54 332.28,631.71 334.45,631.87 336.62,632.02 338.80,632.16 340.98,632.30 343.15,632.43 345.32,632.56 347.50,632.68 349.68,632.79 351.85,632.90 354.02,633.00 356.20,633.10 358.38,633.19 360.55,633.28 362.73,633.36 364.90,633.44 367.07,633.52 369.25,633.59 371.43,633.66 373.60,633.73 375.77,633.79 377.95,633.85 380.12,633.90 382.30,633.96 384.48,634.01 386.65,634.06 388.82,634.10 391.00,634.15 393.18,634.19 395.35,634.23 397.52,634.26 399.70,634.30 401.88,634.33 404.05,634.37 406.23,634.40 408.40,634.43 410.57,634.46 412.75,634.48 414.93,634.51 417.10,634.53 419.27,634.55 421.45,634.58 423.62,634.60 425.80,634.62 427.98,634.63 430.15,634.65 432.32,634.67 434.50,634.69 436.68,634.70 438.85,634.72 441.02,634.73 443.20,634.74 445.38,634.76 447.55,634.77 449.73,634.78 451.90,634.79 454.07,634.80 456.25,634.81 458.43,634.82 460.60,634.83 462.77,634.84 464.95,634.84 467.12,634.85 469.30,634.86 471.48,634.87 473.65,634.87 475.82,634.88 478.00,634.88 480.18,634.89 482.35,634.90 484.52,634.90 486.70,634.91 488.88,634.91 491.05,634.91 493.23,634.92 495.40,634.92 497.57,634.93 499.75,634.93 501.93,634.93 504.10,634.94 506.27,634.94 508.45,634.94 510.62,634.95 512.80,634.95 514.98,634.95 517.15,634.95 519.32,634.96 521.50,634.96 523.68,634.96 525.85,634.96 528.02,634.96 530.20,634.97 532.38,634.97 534.55,634.97 536.73,634.97 538.90,634.97 541.08,634.97 543.25,634.97 545.42,634.98 547.60,634.98 549.77,634.98 551.95,634.98 554.12,634.98 556.30,634.98 558.48,634.98 560.65,634.98 562.83,634.98 565.00,634.98 567.17,634.99 569.35,634.99 571.52,634.99 573.70,634.99 575.88,634.99 578.05,634.99 580.23,634.99 582.40,634.99 584.58,634.99 586.75,634.99 588.92,634.99 591.10,634.99 593.27,634.99 595.45,634.99 597.62,634.99 599.80,634.99 601.98,634.99 604.15,634.99 606.33,634.99 608.50,634.99 610.67,634.99 612.85,634.99 615.02,635.00 617.20,635.00 619.38,635.00 621.55,635.00 623.73,635.00 625.90,635.00 628.08,635.00 630.25,635.00 632.42,635.00 634.60,635.00 636.77,635.00 638.95,635.00 641.12,635.00 643.30,635.00 645.48,635.00 647.65,635.00 649.83,635.00 652.00,635.00 654.17,635.00 656.35,635.00 658.52,635.00 660.70,635.00 662.88,635.00 665.05,635.00 667.23,635.00 669.40,635.00 671.58,635.00 673.75,635.00 675.92,635.00 678.10,635.00 680.27,635.00 682.45,635.00 684.62,635.00 686.80,635.00 688.98,635.00 691.15,635.00 693.33,635.00 695.50,635.00 697.67,635.00 699.85,635.00 702.02,635.00 704.20,635.00 706.38,635.00 708.55,635.00 710.73,635.00 712.90,635.00 715.08,635.00 717.25,635.00 719.42,635.00 721.60,635.00 723.77,635.00 725.95,635.00 728.12,635.00 730.30,635.00 732.48,635.00 734.65,635.00 736.83,635.00 739.00,635.00 741.17,635.00 743.35,635.00 745.52,635.00 747.70,635.00 749.88,635.00 752.05,635.00 754.23,635.00 756.40,635.00 758.58,635.00 760.75,635.00 762.92,635.00 765.10,635.00 767.27,635.00 769.45,635.00 771.62,635.00 773.80,635.00 775.98,635.00 778.15,635.00 780.33,635.00 782.50,635.00 784.67,635.00 786.85,635.00 789.02,635.00 791.20,635.00 793.38,635.00 795.55,635.00 797.73,635.00 799.90,635.00 802.08,635.00 804.25,635.00 806.42,635.00 808.60,635.00 810.77,635.00 812.95,635.00 815.12,635.00 817.30,635.00 819.48,635.00 821.65,635.00 823.83,635.00 826.00,635.00 828.17,635.00 830.35,635.00 832.52,635.00 834.70,635.00 836.88,635.00 839.05,635.00 841.23,635.00 843.40,635.00 845.58,635.00 847.75,635.00 849.92,635.00 852.10,635.00 854.27,635.00 856.45,635.00 858.62,635.00 860.80,635.00 862.98,635.00 865.15,635.00 867.33,635.00 869.50,635.00 871.67,635.00 873.85,635.00 876.02,635.00 878.20,635.00 880.38,635.00 882.55,635.00 884.73,635.00 886.90,635.00 889.08,635.00 891.25,635.00 893.42,635.00 895.60,635.00 897.77,635.00 899.95,635.00 902.12,635.00 904.30,635.00 906.48,635.00 908.65,635.00 910.83,635.00 913.00,635.00 915.17,635.00 917.35,635.00 919.52,635.00 921.70,635.00 923.88,635.00 926.05,635.00 928.23,635.00 930.40,635.00 932.58,635.00 934.75,635.00 936.92,635.00 939.10,635.00 941.27,635.00 943.45,635.00 945.62,635.00 947.80,635.00 949.98,635.00 952.15,635.00 954.33,635.00 956.50,635.00 958.67,635.00 960.85,635.00 963.02,635.00 965.20,635.00 967.38,635.00 969.55,635.00 971.73,635.00 973.90,635.00 976.08,635.00 978.25,635.00 980.42,635.00 982.60,635.00 984.77,635.00 986.95,635.00 989.12,635.00 991.30,635.00 993.48,635.00 995.65,635.00 997.83,635.00 1000.00,635.00" fill="none" stroke="#b84e34" stroke-width="4.5" stroke-linejoin="round"/>
<polyline points="130.00,505.80 132.18,514.23 134.35,522.28 136.53,529.98 138.70,537.34 140.88,544.38 143.05,551.12 145.22,557.56 147.40,563.73 149.57,569.63 151.75,575.27 153.93,580.67 156.10,585.84 158.28,590.79 160.45,595.53 162.62,600.06 164.80,604.41 166.97,608.57 169.15,612.55 171.32,616.37 173.50,620.03 175.68,623.53 177.85,626.89 180.02,630.11 182.20,633.19 184.38,636.15 186.55,638.99 188.72,641.71 190.90,644.32 193.07,646.82 195.25,649.22 197.43,651.52 199.60,653.73 201.78,655.85 203.95,657.89 206.12,659.85 208.30,661.72 210.47,663.53 212.65,665.26 214.82,666.92 217.00,668.52 219.17,670.05 221.35,671.53 223.53,672.95 225.70,674.31 227.88,675.62 230.05,676.88 232.22,678.10 234.40,679.26 236.57,680.38 238.75,681.46 240.93,682.50 243.10,683.50 245.28,684.47 247.45,685.39 249.62,686.29 251.80,687.15 253.97,687.97 256.15,688.77 258.32,689.54 260.50,690.28 262.68,691.00 264.85,691.68 267.02,692.35 269.20,692.99 271.38,693.61 273.55,694.20 275.73,694.78 277.90,695.33 280.07,695.87 282.25,696.38 284.43,696.88 286.60,697.36 288.77,697.83 290.95,698.28 293.12,698.71 295.30,699.13 297.48,699.53 299.65,699.92 301.82,700.30 304.00,700.67 306.18,701.02 308.35,701.36 310.53,701.69 312.70,702.01 314.88,702.32 317.05,702.62 319.22,702.91 321.40,703.19 323.57,703.46 325.75,703.72 327.93,703.98 330.10,704.22 332.28,704.46 334.45,704.69 336.62,704.92 338.80,705.13 340.98,705.34 343.15,705.54 345.32,705.74 347.50,705.93 349.68,706.12 351.85,706.30 354.02,706.47 356.20,706.64 358.38,706.80 360.55,706.96 362.73,707.11 364.90,707.26 367.07,707.41 369.25,707.55 371.43,707.69 373.60,707.82 375.77,707.95 377.95,708.07 380.12,708.19 382.30,708.31 384.48,708.42 386.65,708.53 388.82,708.64 391.00,708.74 393.18,708.85 395.35,708.94 397.52,709.04 399.70,709.13 401.88,709.22 404.05,709.31 406.23,709.40 408.40,709.48 410.57,709.56 412.75,709.64 414.93,709.71 417.10,709.79 419.27,709.86 421.45,709.93 423.62,710.00 425.80,710.06 427.98,710.13 430.15,710.19 432.32,710.25 434.50,710.31 436.68,710.37 438.85,710.42 441.02,710.48 443.20,710.53 445.38,710.58 447.55,710.63 449.73,710.68 451.90,710.73 454.07,710.78 456.25,710.82 458.43,710.86 460.60,710.91 462.77,710.95 464.95,710.99 467.12,711.03 469.30,711.07 471.48,711.10 473.65,711.14 475.82,711.17 478.00,711.21 480.18,711.24 482.35,711.27 484.52,711.31 486.70,711.34 488.88,711.37 491.05,711.40 493.23,711.43 495.40,711.45 497.57,711.48 499.75,711.51 501.93,711.53 504.10,711.56 506.27,711.58 508.45,711.60 510.62,711.63 512.80,711.65 514.98,711.67 517.15,711.69 519.32,711.71 521.50,711.73 523.68,711.75 525.85,711.77 528.02,711.79 530.20,711.81 532.38,711.83 534.55,711.85 536.73,711.86 538.90,711.88 541.08,711.89 543.25,711.91 545.42,711.93 547.60,711.94 549.77,711.96 551.95,711.97 554.12,711.98 556.30,712.00 558.48,712.01 560.65,712.02 562.83,712.03 565.00,712.05 567.17,712.06 569.35,712.07 571.52,712.08 573.70,712.09 575.88,712.10 578.05,712.11 580.23,712.12 582.40,712.13 584.58,712.14 586.75,712.15 588.92,712.16 591.10,712.17 593.27,712.18 595.45,712.19 597.62,712.19 599.80,712.20 601.98,712.21 604.15,712.22 606.33,712.23 608.50,712.23 610.67,712.24 612.85,712.25 615.02,712.25 617.20,712.26 619.38,712.27 621.55,712.27 623.73,712.28 625.90,712.28 628.08,712.29 630.25,712.30 632.42,712.30 634.60,712.31 636.77,712.31 638.95,712.32 641.12,712.32 643.30,712.33 645.48,712.33 647.65,712.34 649.83,712.34 652.00,712.35 654.17,712.35 656.35,712.35 658.52,712.36 660.70,712.36 662.88,712.37 665.05,712.37 667.23,712.37 669.40,712.38 671.58,712.38 673.75,712.38 675.92,712.39 678.10,712.39 680.27,712.39 682.45,712.40 684.62,712.40 686.80,712.40 688.98,712.40 691.15,712.41 693.33,712.41 695.50,712.41 697.67,712.42 699.85,712.42 702.02,712.42 704.20,712.42 706.38,712.43 708.55,712.43 710.73,712.43 712.90,712.43 715.08,712.43 717.25,712.44 719.42,712.44 721.60,712.44 723.77,712.44 725.95,712.44 728.12,712.45 730.30,712.45 732.48,712.45 734.65,712.45 736.83,712.45 739.00,712.45 741.17,712.46 743.35,712.46 745.52,712.46 747.70,712.46 749.88,712.46 752.05,712.46 754.23,712.46 756.40,712.47 758.58,712.47 760.75,712.47 762.92,712.47 765.10,712.47 767.27,712.47 769.45,712.47 771.62,712.47 773.80,712.47 775.98,712.48 778.15,712.48 780.33,712.48 782.50,712.48 784.67,712.48 786.85,712.48 789.02,712.48 791.20,712.48 793.38,712.48 795.55,712.48 797.73,712.48 799.90,712.49 802.08,712.49 804.25,712.49 806.42,712.49 808.60,712.49 810.77,712.49 812.95,712.49 815.12,712.49 817.30,712.49 819.48,712.49 821.65,712.49 823.83,712.49 826.00,712.49 828.17,712.49 830.35,712.49 832.52,712.50 834.70,712.50 836.88,712.50 839.05,712.50 841.23,712.50 843.40,712.50 845.58,712.50 847.75,712.50 849.92,712.50 852.10,712.50 854.27,712.50 856.45,712.50 858.62,712.50 860.80,712.50 862.98,712.50 865.15,712.50 867.33,712.50 869.50,712.50 871.67,712.50 873.85,712.50 876.02,712.50 878.20,712.50 880.38,712.50 882.55,712.50 884.73,712.51 886.90,712.51 889.08,712.51 891.25,712.51 893.42,712.51 895.60,712.51 897.77,712.51 899.95,712.51 902.12,712.51 904.30,712.51 906.48,712.51 908.65,712.51 910.83,712.51 913.00,712.51 915.17,712.51 917.35,712.51 919.52,712.51 921.70,712.51 923.88,712.51 926.05,712.51 928.23,712.51 930.40,712.51 932.58,712.51 934.75,712.51 936.92,712.51 939.10,712.51 941.27,712.51 943.45,712.51 945.62,712.51 947.80,712.51 949.98,712.51 952.15,712.51 954.33,712.51 956.50,712.51 958.67,712.51 960.85,712.51 963.02,712.51 965.20,712.51 967.38,712.51 969.55,712.51 971.73,712.51 973.90,712.51 976.08,712.51 978.25,712.51 980.42,712.51 982.60,712.51 984.77,712.51 986.95,712.51 989.12,712.51 991.30,712.51 993.48,712.51 995.65,712.51 997.83,712.51 1000.00,712.51" fill="none" stroke="#326bb2" stroke-width="4.5" stroke-linejoin="round"/>
<polyline points="130.00,451.97 132.18,458.36 134.35,464.61 136.53,470.71 138.70,476.67 140.88,482.50 143.05,488.20 145.22,493.76 147.40,499.19 149.57,504.50 151.75,509.68 153.93,514.74 156.10,519.67 158.28,524.49 160.45,529.20 162.62,533.79 164.80,538.27 166.97,542.65 169.15,546.91 171.32,551.07 173.50,555.14 175.68,559.10 177.85,562.96 180.02,566.73 182.20,570.41 184.38,573.99 186.55,577.49 188.72,580.90 190.90,584.22 193.07,587.46 195.25,590.62 197.43,593.71 199.60,596.71 201.78,599.64 203.95,602.49 206.12,605.28 208.30,607.99 210.47,610.64 212.65,613.21 214.82,615.73 217.00,618.18 219.17,620.57 221.35,622.89 223.53,625.16 225.70,627.37 227.88,629.53 230.05,631.63 232.22,633.68 234.40,635.67 236.57,637.62 238.75,639.51 240.93,641.36 243.10,643.16 245.28,644.92 247.45,646.63 249.62,648.30 251.80,649.93 253.97,651.51 256.15,653.06 258.32,654.56 260.50,656.03 262.68,657.46 264.85,658.85 267.02,660.21 269.20,661.54 271.38,662.83 273.55,664.09 275.73,665.32 277.90,666.52 280.07,667.68 282.25,668.82 284.43,669.93 286.60,671.01 288.77,672.07 290.95,673.10 293.12,674.10 295.30,675.08 297.48,676.04 299.65,676.97 301.82,677.87 304.00,678.76 306.18,679.62 308.35,680.46 310.53,681.29 312.70,682.09 314.88,682.87 317.05,683.63 319.22,684.38 321.40,685.10 323.57,685.81 325.75,686.50 327.93,687.18 330.10,687.83 332.28,688.48 334.45,689.10 336.62,689.71 338.80,690.31 340.98,690.89 343.15,691.46 345.32,692.02 347.50,692.56 349.68,693.09 351.85,693.61 354.02,694.11 356.20,694.60 358.38,695.08 360.55,695.55 362.73,696.01 364.90,696.46 367.07,696.90 369.25,697.33 371.43,697.74 373.60,698.15 375.77,698.55 377.95,698.94 380.12,699.32 382.30,699.69 384.48,700.05 386.65,700.41 388.82,700.75 391.00,701.09 393.18,701.42 395.35,701.75 397.52,702.06 399.70,702.37 401.88,702.67 404.05,702.97 406.23,703.26 408.40,703.54 410.57,703.82 412.75,704.09 414.93,704.35 417.10,704.61 419.27,704.86 421.45,705.11 423.62,705.35 425.80,705.59 427.98,705.82 430.15,706.05 432.32,706.27 434.50,706.48 436.68,706.70 438.85,706.90 441.02,707.11 443.20,707.30 445.38,707.50 447.55,707.69 449.73,707.88 451.90,708.06 454.07,708.24 456.25,708.41 458.43,708.58 460.60,708.75 462.77,708.91 464.95,709.08 467.12,709.23 469.30,709.39 471.48,709.54 473.65,709.69 475.82,709.83 478.00,709.97 480.18,710.11 482.35,710.25 484.52,710.38 486.70,710.51 488.88,710.64 491.05,710.77 493.23,710.89 495.40,711.01 497.57,711.13 499.75,711.24 501.93,711.36 504.10,711.47 506.27,711.58 508.45,711.69 510.62,711.79 512.80,711.89 514.98,712.00 517.15,712.09 519.32,712.19 521.50,712.29 523.68,712.38 525.85,712.47 528.02,712.56 530.20,712.65 532.38,712.74 534.55,712.82 536.73,712.91 538.90,712.99 541.08,713.07 543.25,713.15 545.42,713.22 547.60,713.30 549.77,713.37 551.95,713.45 554.12,713.52 556.30,713.59 558.48,713.66 560.65,713.73 562.83,713.79 565.00,713.86 567.17,713.92 569.35,713.99 571.52,714.05 573.70,714.11 575.88,714.17 578.05,714.23 580.23,714.29 582.40,714.34 584.58,714.40 586.75,714.45 588.92,714.51 591.10,714.56 593.27,714.61 595.45,714.66 597.62,714.71 599.80,714.76 601.98,714.81 604.15,714.86 606.33,714.90 608.50,714.95 610.67,715.00 612.85,715.04 615.02,715.08 617.20,715.13 619.38,715.17 621.55,715.21 623.73,715.25 625.90,715.29 628.08,715.33 630.25,715.37 632.42,715.41 634.60,715.45 636.77,715.48 638.95,715.52 641.12,715.55 643.30,715.59 645.48,715.62 647.65,715.66 649.83,715.69 652.00,715.72 654.17,715.76 656.35,715.79 658.52,715.82 660.70,715.85 662.88,715.88 665.05,715.91 667.23,715.94 669.40,715.97 671.58,716.00 673.75,716.02 675.92,716.05 678.10,716.08 680.27,716.11 682.45,716.13 684.62,716.16 686.80,716.18 688.98,716.21 691.15,716.23 693.33,716.26 695.50,716.28 697.67,716.30 699.85,716.33 702.02,716.35 704.20,716.37 706.38,716.39 708.55,716.42 710.73,716.44 712.90,716.46 715.08,716.48 717.25,716.50 719.42,716.52 721.60,716.54 723.77,716.56 725.95,716.58 728.12,716.60 730.30,716.62 732.48,716.63 734.65,716.65 736.83,716.67 739.00,716.69 741.17,716.70 743.35,716.72 745.52,716.74 747.70,716.75 749.88,716.77 752.05,716.79 754.23,716.80 756.40,716.82 758.58,716.83 760.75,716.85 762.92,716.86 765.10,716.88 767.27,716.89 769.45,716.91 771.62,716.92 773.80,716.94 775.98,716.95 778.15,716.96 780.33,716.98 782.50,716.99 784.67,717.00 786.85,717.01 789.02,717.03 791.20,717.04 793.38,717.05 795.55,717.06 797.73,717.07 799.90,717.09 802.08,717.10 804.25,717.11 806.42,717.12 808.60,717.13 810.77,717.14 812.95,717.15 815.12,717.16 817.30,717.17 819.48,717.18 821.65,717.19 823.83,717.20 826.00,717.21 828.17,717.22 830.35,717.23 832.52,717.24 834.70,717.25 836.88,717.26 839.05,717.27 841.23,717.28 843.40,717.29 845.58,717.30 847.75,717.30 849.92,717.31 852.10,717.32 854.27,717.33 856.45,717.34 858.62,717.35 860.80,717.35 862.98,717.36 865.15,717.37 867.33,717.38 869.50,717.38 871.67,717.39 873.85,717.40 876.02,717.41 878.20,717.41 880.38,717.42 882.55,717.43 884.73,717.43 886.90,717.44 889.08,717.45 891.25,717.45 893.42,717.46 895.60,717.46 897.77,717.47 899.95,717.48 902.12,717.48 904.30,717.49 906.48,717.50 908.65,717.50 910.83,717.51 913.00,717.51 915.17,717.52 917.35,717.52 919.52,717.53 921.70,717.53 923.88,717.54 926.05,717.54 928.23,717.55 930.40,717.55 932.58,717.56 934.75,717.56 936.92,717.57 939.10,717.57 941.27,717.58 943.45,717.58 945.62,717.59 947.80,717.59 949.98,717.60 952.15,717.60 954.33,717.61 956.50,717.61 958.67,717.61 960.85,717.62 963.02,717.62 965.20,717.63 967.38,717.63 969.55,717.64 971.73,717.64 973.90,717.64 976.08,717.65 978.25,717.65 980.42,717.65 982.60,717.66 984.77,717.66 986.95,717.67 989.12,717.67 991.30,717.67 993.48,717.68 995.65,717.68 997.83,717.68 1000.00,717.69" fill="none" stroke="#008371" stroke-width="4.5" stroke-linejoin="round"/>
<line x1="1000" y1="634.9999992898913" x2="1022" y2="627" stroke="#b84e34" stroke-width="1.5" stroke-dasharray=""/>
<text x="1029" y="633" font-size="22" fill="#b84e34" font-weight="bold" text-anchor="start">1.00%</text>
<line x1="1000" y1="712.5138714791962" x2="1022" y2="681" stroke="#326bb2" stroke-width="1.5" stroke-dasharray=""/>
<text x="1029" y="687" font-size="22" fill="#326bb2" font-weight="bold" text-anchor="start">0.11%</text>
<line x1="1000" y1="717.6860547088548" x2="1022" y2="721" stroke="#008371" stroke-width="1.5" stroke-dasharray=""/>
<text x="1029" y="727" font-size="22" fill="#008371" font-weight="bold" text-anchor="start">0.05%</text>
<rect x="1174" y="192" width="454" height="614" rx="18" fill="#edf2f5"/>
<text x="1204" y="235" font-size="22" fill="#576875" font-weight="bold" text-anchor="start">10 SIGNERS · 7 REQUIRED</text>
<line x1="1204" y1="292" x2="1236" y2="292" stroke="#b84e34" stroke-width="5" stroke-dasharray=""/>
<text x="1250" y="299" font-size="24" fill="#b84e34" font-weight="bold" text-anchor="start">1 implementation</text>
<rect x="1205" y="322" width="33" height="45" rx="7" fill="#ffffff"/>
<text x="1221.5" y="353" font-size="21" fill="#b84e34" font-weight="bold" text-anchor="middle">A</text>
<rect x="1244" y="322" width="33" height="45" rx="7" fill="#ffffff"/>
<text x="1260.5" y="353" font-size="21" fill="#b84e34" font-weight="bold" text-anchor="middle">A</text>
<rect x="1283" y="322" width="33" height="45" rx="7" fill="#ffffff"/>
<text x="1299.5" y="353" font-size="21" fill="#b84e34" font-weight="bold" text-anchor="middle">A</text>
<rect x="1322" y="322" width="33" height="45" rx="7" fill="#ffffff"/>
<text x="1338.5" y="353" font-size="21" fill="#b84e34" font-weight="bold" text-anchor="middle">A</text>
<rect x="1361" y="322" width="33" height="45" rx="7" fill="#ffffff"/>
<text x="1377.5" y="353" font-size="21" fill="#b84e34" font-weight="bold" text-anchor="middle">A</text>
<rect x="1400" y="322" width="33" height="45" rx="7" fill="#ffffff"/>
<text x="1416.5" y="353" font-size="21" fill="#b84e34" font-weight="bold" text-anchor="middle">A</text>
<rect x="1439" y="322" width="33" height="45" rx="7" fill="#ffffff"/>
<text x="1455.5" y="353" font-size="21" fill="#b84e34" font-weight="bold" text-anchor="middle">A</text>
<rect x="1478" y="322" width="33" height="45" rx="7" fill="#ffffff"/>
<text x="1494.5" y="353" font-size="21" fill="#b84e34" font-weight="bold" text-anchor="middle">A</text>
<rect x="1517" y="322" width="33" height="45" rx="7" fill="#ffffff"/>
<text x="1533.5" y="353" font-size="21" fill="#b84e34" font-weight="bold" text-anchor="middle">A</text>
<rect x="1556" y="322" width="33" height="45" rx="7" fill="#ffffff"/>
<text x="1572.5" y="353" font-size="21" fill="#b84e34" font-weight="bold" text-anchor="middle">A</text>
<text x="1204" y="401" font-size="19" fill="#1b2935" font-weight="normal" text-anchor="start">Needs 1 compromised codebase</text>
<line x1="1204" y1="459" x2="1236" y2="459" stroke="#326bb2" stroke-width="5" stroke-dasharray=""/>
<text x="1250" y="466" font-size="24" fill="#326bb2" font-weight="bold" text-anchor="start">2 implementations</text>
<rect x="1205" y="489" width="33" height="45" rx="7" fill="#ffffff"/>
<text x="1221.5" y="520" font-size="21" fill="#326bb2" font-weight="bold" text-anchor="middle">A</text>
<rect x="1244" y="489" width="33" height="45" rx="7" fill="#ffffff"/>
<text x="1260.5" y="520" font-size="21" fill="#326bb2" font-weight="bold" text-anchor="middle">A</text>
<rect x="1283" y="489" width="33" height="45" rx="7" fill="#ffffff"/>
<text x="1299.5" y="520" font-size="21" fill="#326bb2" font-weight="bold" text-anchor="middle">A</text>
<rect x="1322" y="489" width="33" height="45" rx="7" fill="#ffffff"/>
<text x="1338.5" y="520" font-size="21" fill="#326bb2" font-weight="bold" text-anchor="middle">A</text>
<rect x="1361" y="489" width="33" height="45" rx="7" fill="#ffffff"/>
<text x="1377.5" y="520" font-size="21" fill="#326bb2" font-weight="bold" text-anchor="middle">A</text>
<rect x="1400" y="489" width="33" height="45" rx="7" fill="#ffffff"/>
<text x="1416.5" y="520" font-size="21" fill="#326bb2" font-weight="bold" text-anchor="middle">B</text>
<rect x="1439" y="489" width="33" height="45" rx="7" fill="#ffffff"/>
<text x="1455.5" y="520" font-size="21" fill="#326bb2" font-weight="bold" text-anchor="middle">B</text>
<rect x="1478" y="489" width="33" height="45" rx="7" fill="#ffffff"/>
<text x="1494.5" y="520" font-size="21" fill="#326bb2" font-weight="bold" text-anchor="middle">B</text>
<rect x="1517" y="489" width="33" height="45" rx="7" fill="#ffffff"/>
<text x="1533.5" y="520" font-size="21" fill="#326bb2" font-weight="bold" text-anchor="middle">B</text>
<rect x="1556" y="489" width="33" height="45" rx="7" fill="#ffffff"/>
<text x="1572.5" y="520" font-size="21" fill="#326bb2" font-weight="bold" text-anchor="middle">B</text>
<text x="1204" y="568" font-size="19" fill="#1b2935" font-weight="normal" text-anchor="start">Needs both A and B</text>
<line x1="1204" y1="626" x2="1236" y2="626" stroke="#008371" stroke-width="5" stroke-dasharray=""/>
<text x="1250" y="633" font-size="24" fill="#008371" font-weight="bold" text-anchor="start">4 implementations</text>
<rect x="1205" y="656" width="33" height="45" rx="7" fill="#ffffff"/>
<text x="1221.5" y="687" font-size="21" fill="#008371" font-weight="bold" text-anchor="middle">A</text>
<rect x="1244" y="656" width="33" height="45" rx="7" fill="#ffffff"/>
<text x="1260.5" y="687" font-size="21" fill="#008371" font-weight="bold" text-anchor="middle">A</text>
<rect x="1283" y="656" width="33" height="45" rx="7" fill="#ffffff"/>
<text x="1299.5" y="687" font-size="21" fill="#008371" font-weight="bold" text-anchor="middle">A</text>
<rect x="1322" y="656" width="33" height="45" rx="7" fill="#ffffff"/>
<text x="1338.5" y="687" font-size="21" fill="#008371" font-weight="bold" text-anchor="middle">B</text>
<rect x="1361" y="656" width="33" height="45" rx="7" fill="#ffffff"/>
<text x="1377.5" y="687" font-size="21" fill="#008371" font-weight="bold" text-anchor="middle">B</text>
<rect x="1400" y="656" width="33" height="45" rx="7" fill="#ffffff"/>
<text x="1416.5" y="687" font-size="21" fill="#008371" font-weight="bold" text-anchor="middle">B</text>
<rect x="1439" y="656" width="33" height="45" rx="7" fill="#ffffff"/>
<text x="1455.5" y="687" font-size="21" fill="#008371" font-weight="bold" text-anchor="middle">C</text>
<rect x="1478" y="656" width="33" height="45" rx="7" fill="#ffffff"/>
<text x="1494.5" y="687" font-size="21" fill="#008371" font-weight="bold" text-anchor="middle">C</text>
<rect x="1517" y="656" width="33" height="45" rx="7" fill="#ffffff"/>
<text x="1533.5" y="687" font-size="21" fill="#008371" font-weight="bold" text-anchor="middle">D</text>
<rect x="1556" y="656" width="33" height="45" rx="7" fill="#ffffff"/>
<text x="1572.5" y="687" font-size="21" fill="#008371" font-weight="bold" text-anchor="middle">D</text>
<text x="1204" y="735" font-size="19" fill="#1b2935" font-weight="normal" text-anchor="start">Needs any 3 compromised codebases</text>
<text x="1204" y="777" font-size="18" fill="#576875" font-weight="normal" text-anchor="start">Same letter = same codebase</text>
<rect x="72" y="844" width="1556" height="76" rx="14" fill="#e4f1ed"/>
<text x="101" y="893" font-size="31" fill="#075e50" font-weight="bold" text-anchor="start">Fewer shared failure modes—not necessarily fewer bugs.</text>
<text x="72" y="961" font-size="20" fill="#576875" font-weight="normal" text-anchor="start">Toy probabilities; equal hardening budget. Common-failure floor: 0.01%. Shared attack exposure also correlates risk.</text>
<text x="72" y="992" font-size="20" fill="#576875" font-weight="normal" text-anchor="start">Shared flaws limit the benefit. Signing safety only; implementation startup costs excluded.</text>
</g>
</svg>